<?xml version="1.0" encoding="UTF-8" standalone="no"?>
<svg
   xmlns:dc="http://purl.org/dc/elements/1.1/"
   xmlns:cc="http://creativecommons.org/ns#"
   xmlns:rdf="http://www.w3.org/1999/02/22-rdf-syntax-ns#"
   xmlns:svg="http://www.w3.org/2000/svg"
   xmlns="http://www.w3.org/2000/svg"
   xmlns:sodipodi="http://sodipodi.sourceforge.net/DTD/sodipodi-0.dtd"
   xmlns:inkscape="http://www.inkscape.org/namespaces/inkscape"
   version="1.1"
   id="svg2"
   xml:space="preserve"
   width="602.73334"
   height="106.69333"
   viewBox="0 0 602.73334 106.69333"
   sodipodi:docname="blackbuck-logo.eps"><metadata
     id="metadata8"><rdf:RDF><cc:Work
         rdf:about=""><dc:format>image/svg+xml</dc:format><dc:type
           rdf:resource="http://purl.org/dc/dcmitype/StillImage" /></cc:Work></rdf:RDF></metadata><defs
     id="defs6" /><sodipodi:namedview
     pagecolor="#ffffff"
     bordercolor="#666666"
     borderopacity="1"
     objecttolerance="10"
     gridtolerance="10"
     guidetolerance="10"
     inkscape:pageopacity="0"
     inkscape:pageshadow="2"
     inkscape:window-width="640"
     inkscape:window-height="480"
     id="namedview4" /><g
     id="g10"
     inkscape:groupmode="layer"
     inkscape:label="ink_ext_XXXXXX"
     transform="matrix(1.3333333,0,0,-1.3333333,0,106.69333)"><g
       id="g12"
       transform="scale(0.1)"><path
         d="m 270.828,302.637 c 9.391,9.968 14.027,24.375 14.027,43.093 0,18.125 -4.507,32.344 -13.582,42.657 -9.011,10.312 -22.027,15.453 -38.847,15.453 h -50.649 c -3.746,0 -5.582,-1.867 -5.582,-5.613 V 293.242 c 0,-3.742 1.836,-5.617 5.582,-5.617 h 49.7 c 16.882,0 29.961,5.02 39.351,15.012 z m -94.633,333.601 v -92.761 c 0,-3.743 1.836,-5.618 5.582,-5.618 h 40.309 c 18.148,0 31.859,4.508 41.254,13.586 9.394,9.043 14.027,22.02 14.027,38.875 0,34.368 -18.406,51.539 -55.281,51.539 h -40.309 c -3.746,0 -5.582,-1.875 -5.582,-5.621 z m 223.477,-452.16 c -41.57,-31.551 -95.078,-47.32 -160.707,-47.32 H 14.0273 c -4.37886,0 -7.80855,1.238 -10.28121,3.75 C 1.26953,143.008 0,146.434 0,150.82 v 627.879 c 0,4.348 1.26953,7.809 3.74609,10.313 2.47266,2.476 5.90235,3.746 10.28121,3.746 H 220.242 c 153.028,0 229.571,-61.567 229.571,-184.637 0,-58.074 -20.625,-100.887 -61.821,-128.367 -3.746,-2.512 -4.125,-4.695 -0.949,-6.57 49.312,-33.735 74.008,-83.082 74.008,-148.079 0.633,-62.449 -19.805,-109.484 -61.379,-141.027"
         style="fill:#231f20;fill-opacity:1;fill-rule:nonzero;stroke:none"
         id="path14" /><path
         d="m 501.68,140.508 c -2.539,2.5 -3.809,5.926 -3.809,10.312 v 627.879 c 0,4.348 1.27,7.809 3.809,10.313 2.476,2.476 5.902,3.746 10.285,3.746 h 148.074 c 4.379,0 7.809,-1.27 10.281,-3.746 2.477,-2.504 3.746,-5.965 3.746,-10.313 V 293.242 c 0,-3.742 1.907,-5.617 5.653,-5.617 h 170.183 c 4.379,0 7.809,-1.23 10.286,-3.738 2.472,-2.512 3.742,-5.938 3.742,-10.313 V 150.82 c 0,-4.386 -1.27,-7.812 -3.742,-10.312 -2.477,-2.512 -5.907,-3.75 -10.286,-3.75 H 511.965 c -4.383,0 -7.809,1.238 -10.285,3.75"
         style="fill:#231f20;fill-opacity:1;fill-rule:nonzero;stroke:none"
         id="path16" /><path
         d="m 1124.48,365.41 c 0,-3.137 1.84,-4.66 5.58,-4.66 h 79.66 c 4.38,0 6.28,2.16 5.65,6.535 l -42.15,194.914 c -0.63,2.512 -1.9,3.781 -3.74,3.781 -1.91,0 -3.18,-1.269 -3.75,-3.781 l -41.25,-194.914 z m 137.73,-216.465 -15.94,72.168 c -1.27,3.106 -3.11,4.668 -5.58,4.668 H 1100.1 c -2.47,0 -4.38,-1.562 -5.65,-4.668 l -14.97,-72.168 c -1.84,-8.125 -7.18,-12.187 -15.94,-12.187 H 909.883 c -5.016,0 -8.633,1.394 -10.789,4.219 -2.223,2.793 -2.668,6.699 -1.399,11.718 L 1064.5,780.57 c 1.84,8.094 6.85,12.188 14.98,12.188 h 185.58 c 8.07,0 13.08,-4.094 14.98,-12.188 l 165.85,-627.875 c 0.63,-1.269 0.95,-2.832 0.95,-4.699 0,-7.488 -4.38,-11.238 -13.14,-11.238 h -155.56 c -8.76,0 -14.03,4.062 -15.93,12.187"
         style="fill:#231f20;fill-opacity:1;fill-rule:nonzero;stroke:none"
         id="path18" /><path
         d="m 1559.61,156.434 c -34.97,18.125 -62.13,43.886 -81.49,77.304 -19.42,33.418 -29.07,72.325 -29.07,116.692 v 231.476 c 0,43.703 9.65,82.133 29.07,115.266 19.36,33.101 46.52,58.551 81.49,76.351 34.97,17.809 75.6,26.723 121.87,26.723 46.21,0 86.64,-8.758 121.35,-26.242 34.66,-17.488 61.7,-42.18 81.06,-74.039 19.35,-31.86 29,-69.024 29,-111.52 0,-4.379 -1.21,-7.965 -3.74,-10.757 -2.48,-2.825 -5.91,-4.223 -10.29,-4.223 l -148.07,-6.567 c -9.4,0 -14.03,4.379 -14.03,13.106 v 10.316 c 0,18.121 -5.01,32.496 -15.04,43.125 -9.97,10.602 -23.42,15.934 -40.24,15.934 -16.89,0 -30.47,-5.488 -40.82,-16.406 -10.27,-10.953 -15.42,-25.168 -15.42,-42.653 V 339.168 c 0,-17.488 5.15,-31.711 15.42,-42.629 10.35,-10.945 23.93,-16.402 40.82,-16.402 16.82,0 30.27,5.301 40.24,15.937 10.03,10.625 15.04,24.969 15.04,43.094 v 11.262 c 0,8.73 4.63,13.113 14.03,13.113 l 148.07,-6.57 c 4.38,0 7.81,-1.243 10.29,-3.75 2.53,-2.5 3.74,-5.93 3.74,-10.285 0,-42.489 -9.65,-80 -29,-112.461 -19.36,-32.5 -46.6,-57.481 -81.57,-74.961 -34.97,-17.52 -75.27,-26.25 -120.84,-26.25 -46.27,0 -86.9,9.054 -121.87,27.168"
         style="fill:#231f20;fill-opacity:1;fill-rule:nonzero;stroke:none"
         id="path20" /><path
         d="m 1957.69,140.508 c -2.48,2.5 -3.74,5.926 -3.74,10.312 v 627.879 c 0,4.348 1.26,7.809 3.74,10.313 2.47,2.476 5.9,3.746 10.28,3.746 h 148.07 c 4.38,0 7.81,-1.27 10.35,-3.746 2.48,-2.504 3.75,-5.965 3.75,-10.313 V 574.387 c 0,-3.11 0.76,-4.824 2.35,-5.141 1.52,-0.316 2.92,0.762 4.18,3.266 l 119.97,210.851 c 3.1,6.254 8.75,9.395 16.88,9.395 h 162.11 c 8.11,0 12.17,-2.824 12.17,-8.442 0,-2.507 -0.94,-5.332 -2.79,-8.445 L 2281.96,503.172 c -1.27,-1.871 -1.27,-4.379 0,-7.488 l 168.64,-342.043 1.9,-7.52 c 0,-6.25 -4.06,-9.363 -12.19,-9.363 H 2279.1 c -7.49,0 -12.76,3.426 -15.93,10.312 L 2162,358.875 c -0.64,2.473 -1.72,3.582 -3.3,3.273 -1.59,-0.324 -2.98,-1.398 -4.19,-3.273 l -22.53,-40.301 c -1.27,-3.75 -1.84,-5.969 -1.84,-6.574 V 150.82 c 0,-4.386 -1.27,-7.812 -3.75,-10.312 -2.54,-2.512 -5.97,-3.75 -10.35,-3.75 h -148.07 c -4.38,0 -7.81,1.238 -10.28,3.75"
         style="fill:#231f20;fill-opacity:1;fill-rule:nonzero;stroke:none"
         id="path22" /><path
         d="m 2765.54,302.637 c 9.33,9.968 14.03,24.375 14.03,43.093 0,18.125 -4.57,32.344 -13.58,42.657 -9.09,10.312 -22.03,15.453 -38.91,15.453 h -50.59 c -3.75,0 -5.65,-1.867 -5.65,-5.613 V 293.242 c 0,-3.742 1.9,-5.617 5.65,-5.617 h 49.63 c 16.89,0 30.02,5.02 39.42,15.012 z m -94.7,333.601 v -92.761 c 0,-3.743 1.9,-5.618 5.65,-5.618 h 40.31 c 18.08,0 31.85,4.508 41.19,13.586 9.39,9.043 14.09,22.02 14.09,38.875 0,34.368 -18.48,51.539 -55.28,51.539 h -40.31 c -3.75,0 -5.65,-1.875 -5.65,-5.621 z m 223.54,-452.16 c -41.57,-31.551 -95.14,-47.32 -160.7,-47.32 h -224.94 c -4.38,0 -7.81,1.238 -10.28,3.75 -2.54,2.5 -3.81,5.926 -3.81,10.312 v 627.879 c 0,4.348 1.27,7.809 3.81,10.313 2.47,2.476 5.9,3.746 10.28,3.746 h 206.15 c 153.09,0 229.63,-61.567 229.63,-184.637 0,-58.074 -20.62,-100.887 -61.87,-128.367 -3.75,-2.512 -4.07,-4.695 -0.96,-6.57 49.38,-33.735 74.07,-83.082 74.07,-148.079 0.57,-62.449 -19.86,-109.484 -61.38,-141.027"
         style="fill:#231f20;fill-opacity:1;fill-rule:nonzero;stroke:none"
         id="path24" /><path
         d="m 3616.22,156.434 c -35.04,18.125 -62.2,43.886 -81.56,77.304 -19.36,33.418 -29.06,72.325 -29.06,116.692 v 231.476 c 0,43.703 9.7,82.133 29.06,115.266 19.36,33.101 46.52,58.551 81.56,76.351 34.97,17.809 75.53,26.723 121.8,26.723 46.21,0 86.7,-8.758 121.36,-26.242 34.65,-17.488 61.69,-42.18 81.05,-74.039 19.36,-31.86 29.07,-69.024 29.07,-111.52 0,-4.379 -1.27,-7.965 -3.75,-10.757 -2.54,-2.825 -5.96,-4.223 -10.34,-4.223 l -148.02,-6.567 c -9.39,0 -14.09,4.379 -14.09,13.106 v 10.316 c 0,18.121 -5.01,32.496 -14.98,43.125 -10.02,10.602 -23.42,15.934 -40.3,15.934 -16.88,0 -30.46,-5.488 -40.74,-16.406 -10.36,-10.953 -15.49,-25.168 -15.49,-42.653 V 339.168 c 0,-17.488 5.13,-31.711 15.49,-42.629 10.28,-10.945 23.86,-16.402 40.74,-16.402 16.88,0 30.28,5.301 40.3,15.937 9.97,10.625 14.98,24.969 14.98,43.094 v 11.262 c 0,8.73 4.7,13.113 14.09,13.113 l 148.02,-6.57 c 4.38,0 7.8,-1.243 10.34,-3.75 2.48,-2.5 3.75,-5.93 3.75,-10.285 0,-42.489 -9.71,-80 -29.07,-112.461 -19.36,-32.5 -46.52,-57.481 -81.49,-74.961 -35.04,-17.52 -75.35,-26.25 -120.92,-26.25 -46.27,0 -86.83,9.054 -121.8,27.168"
         style="fill:#231f20;fill-opacity:1;fill-rule:nonzero;stroke:none"
         id="path26" /><path
         d="m 4025.73,140.508 c -2.47,2.5 -3.74,5.926 -3.74,10.312 v 627.879 c 0,4.348 1.27,7.809 3.74,10.313 2.47,2.476 5.9,3.746 10.29,3.746 h 148.07 c 4.38,0 7.8,-1.27 10.34,-3.746 2.48,-2.504 3.75,-5.965 3.75,-10.313 V 574.387 c 0,-3.11 0.77,-4.824 2.35,-5.141 1.52,-0.316 2.92,0.762 4.19,3.266 l 119.96,210.851 c 3.11,6.254 8.76,9.395 16.88,9.395 h 162.1 c 8.13,0 12.19,-2.824 12.19,-8.442 0,-2.507 -0.95,-5.332 -2.79,-8.445 L 4350,503.172 c -1.27,-1.871 -1.27,-4.379 0,-7.488 l 168.64,-342.043 1.91,-7.52 c 0,-6.25 -4.07,-9.363 -12.19,-9.363 h -161.21 c -7.49,0 -12.77,3.426 -15.94,10.312 l -101.17,211.805 c -0.64,2.473 -1.71,3.582 -3.29,3.273 -1.59,-0.324 -2.99,-1.398 -4.19,-3.273 l -22.54,-40.301 c -1.27,-3.75 -1.84,-5.969 -1.84,-6.574 V 150.82 c 0,-4.386 -1.27,-7.812 -3.75,-10.312 -2.54,-2.512 -5.96,-3.75 -10.34,-3.75 h -148.07 c -4.39,0 -7.82,1.238 -10.29,3.75"
         style="fill:#231f20;fill-opacity:1;fill-rule:nonzero;stroke:none"
         id="path28" /><path
         d="m 3431.02,233.301 c 19.04,33.066 28.56,71.465 28.56,115.262 v 444.082 c 0,0.043 -0.04,0.082 -0.08,0.082 v 0 c -97.23,0 -176.05,-78.821 -176.05,-176.047 V 340.117 c 0,-18.156 -5.08,-32.687 -15.04,-43.605 -9.96,-10.918 -22.78,-16.375 -38.4,-16.375 -15.62,0 -28.44,5.457 -38.4,16.375 -9.97,10.918 -15.05,25.449 -15.05,43.605 V 616.68 c 0,97.226 -78.82,176.047 -176.04,176.047 v 0 c -0.05,0 -0.08,-0.039 -0.08,-0.082 V 348.563 c 0,-43.797 9.52,-82.196 28.55,-115.262 19.12,-33.137 45.89,-58.781 80.62,-76.867 25.18,-13.192 53.31,-21.512 84.28,-25.098 0.09,-0.02 0.1,-0.145 0,-0.145 h -23.5 c -59.61,0 -116.23,-28.878 -149.01,-78.6715 -16.46,-25 -20.04,-41.2734 -12.53,-48.77341 2.54,-2.53906 5.96,-3.74999625 10.34,-3.74999625 h 421.7 c 4.38,0 7.8,1.21093625 10.28,3.74999625 6.3,6.14454 4.4,18.14841 -3.79,36.00781 -25.79,56.3203 -83.18,91.4371 -145.13,91.4371 h -36.12 c -0.1,0 -0.09,0.125 0,0.145 30.97,3.586 59.09,11.906 84.28,25.098 34.72,18.086 61.5,43.73 80.61,76.867"
         style="fill:#231f20;fill-opacity:1;fill-rule:nonzero;stroke:none"
         id="path30" /></g></g></svg>
